<svg xmlns="http://www.w3.org/2000/svg" xmlns:xlink="http://www.w3.org/1999/xlink" xmlns:lucid="lucid" width="2320" height="1360"><g transform="translate(0 0)" lucid:page-tab-id="0_0"><path d="M0 0h2320v1360H0z" fill="#fff"/><path d="M400.06 68a8 8 0 0 1 8-8H1820.1a8 8 0 0 1 8 8v220.38a8 8 0 0 1-8 8H408.05a8 8 0 0 1-8-8z" stroke="#000" stroke-opacity="0" stroke-width="2" fill="#fff" fill-opacity="0"/><use xlink:href="#a" transform="matrix(1,0,0,1,404.0552486187846,64) translate(425.9482716049382 116.68902777777778)"/><use xlink:href="#b" transform="matrix(1,0,0,1,404.0552486187846,64) translate(552.5433333333333 116.68902777777778)"/><use xlink:href="#c" transform="matrix(1,0,0,1,404.0552486187846,64) translate(596.1741975308641 116.68902777777778)"/><use xlink:href="#d" transform="matrix(1,0,0,1,404.0552486187846,64) translate(633.9779012345678 116.68902777777778)"/><use xlink:href="#c" transform="matrix(1,0,0,1,404.0552486187846,64) translate(700.9174074074074 116.68902777777778)"/><use xlink:href="#e" transform="matrix(1,0,0,1,404.0552486187846,64) translate(738.721111111111 116.68902777777778)"/><use xlink:href="#f" transform="matrix(1,0,0,1,404.0552486187846,64) translate(815.7124691358024 116.68902777777778)"/><use xlink:href="#g" transform="matrix(1,0,0,1,404.0552486187846,64) translate(918.8532098765431 116.68902777777778)"/><path d="M353.65 168a8 8 0 0 1 8-8h1413.63a8 8 0 0 1 8 8v92.24a8 8 0 0 1-8 8H361.65a8 8 0 0 1-8-8z" stroke="#000" stroke-opacity="0" stroke-width="2" fill="#fff" fill-opacity="0"/><use xlink:href="#h" transform="matrix(1,0,0,1,357.64640883977904,163.9999999986626) translate(557.0130864197531 52.79203703703703)"/><use xlink:href="#i" transform="matrix(1,0,0,1,357.64640883977904,163.9999999986626) translate(601.1174074074074 52.79203703703703)"/><use xlink:href="#j" transform="matrix(1,0,0,1,357.64640883977904,163.9999999986626) translate(678.3637037037038 52.79203703703703)"/><use xlink:href="#k" transform="matrix(1,0,0,1,357.64640883977904,163.9999999986626) translate(742.863086419753 52.79203703703703)"/><use xlink:href="#l" transform="matrix(1,0,0,1,357.64640883977904,163.9999999986626) translate(755.3125720164609 52.79203703703703)"/><use xlink:href="#m" transform="matrix(1,0,0,1,357.64640883977904,163.9999999986626) translate(820.6192592592593 52.79203703703703)"/><use xlink:href="#n" transform="matrix(1,0,0,1,357.64640883977904,163.9999999986626) translate(837.6151440329218 52.79203703703703)"/><path d="M647.76 276.24a8 8 0 0 1 8-8h486.38a8 8 0 0 1 8 8v344a8 8 0 0 1-8 8H655.76a8 8 0 0 1-8-8z" fill="#fff"/><path d="M647.76 276.24a8 8 0 0 1 8-8h486.38a8 8 0 0 1 8 8v344a8 8 0 0 1-8 8H655.76a8 8 0 0 1-8-8zM647.76 308.24h502.38M707.76 308.24v320M1053.96 308.24v320" stroke="#333" fill="none"/><use xlink:href="#o" transform="matrix(1,0,0,1,657.7570221546666,268.237049534683) translate(219.525 23.6)"/><use xlink:href="#p" transform="matrix(1,0,0,1,652.7570221546666,310.737049534683) translate(13 17.1)"/><use xlink:href="#q" transform="matrix(1,0,0,1,712.7570221546666,310.737049534683) translate(156.525 17.1)"/><use xlink:href="#r" transform="matrix(1,0,0,1,1058.960343197018,310.737049534683) translate(16.049999999999997 17.1)"/><use xlink:href="#s" transform="matrix(1,0,0,1,712.7570221546666,342.737049534683) translate(127.07499999999999 17.1)"/><use xlink:href="#t" transform="matrix(1,0,0,1,1058.960343197018,342.737049534683) translate(21.55 17.1)"/><use xlink:href="#u" transform="matrix(1,0,0,1,712.7570221546666,374.737049534683) translate(130.1 17.1)"/><use xlink:href="#t" transform="matrix(1,0,0,1,1058.960343197018,374.737049534683) translate(21.55 17.1)"/><use xlink:href="#v" transform="matrix(1,0,0,1,712.7570221546666,406.737049534683) translate(147.075 17.1)"/><use xlink:href="#t" transform="matrix(1,0,0,1,1058.960343197018,406.737049534683) translate(21.55 17.1)"/><use xlink:href="#w" transform="matrix(1,0,0,1,712.7570221546666,438.737049534683) translate(130.05 17.1)"/><use xlink:href="#t" transform="matrix(1,0,0,1,1058.960343197018,438.737049534683) translate(21.55 17.1)"/><use xlink:href="#x" transform="matrix(1,0,0,1,712.7570221546666,470.737049534683) translate(136.575 17.1)"/><use xlink:href="#y" transform="matrix(1,0,0,1,1058.960343197018,470.737049534683) translate(11.524999999999999 17.1)"/><use xlink:href="#z" transform="matrix(1,0,0,1,712.7570221546666,502.737049534683) translate(130.075 17.1)"/><use xlink:href="#y" transform="matrix(1,0,0,1,1058.960343197018,502.737049534683) translate(11.524999999999999 17.1)"/><use xlink:href="#A" transform="matrix(1,0,0,1,712.7570221546666,534.737049534683) translate(146.5 17.1)"/><use xlink:href="#t" transform="matrix(1,0,0,1,1058.960343197018,534.737049534683) translate(21.55 17.1)"/><use xlink:href="#B" transform="matrix(1,0,0,1,712.7570221546666,566.737049534683) translate(127.075 17.1)"/><use xlink:href="#C" transform="matrix(1,0,0,1,1058.960343197018,566.737049534683) translate(26 17.1)"/><use xlink:href="#D" transform="matrix(1,0,0,1,652.7570221546666,598.737049534683) translate(13.524999999999999 17.1)"/><use xlink:href="#E" transform="matrix(1,0,0,1,712.7570221546666,598.737049534683) translate(134.025 17.1)"/><use xlink:href="#r" transform="matrix(1,0,0,1,1058.960343197018,598.737049534683) translate(16.049999999999997 17.1)"/><path d="M103.88 276.24a8 8 0 0 1 8-8h419.4a8 8 0 0 1 8 8v120a8 8 0 0 1-8 8h-419.4a8 8 0 0 1-8-8z" fill="#fff"/><path d="M103.88 276.24a8 8 0 0 1 8-8h419.4a8 8 0 0 1 8 8v120a8 8 0 0 1-8 8h-419.4a8 8 0 0 1-8-8zM103.88 308.24h435.4M163.88 308.24v96M459.2 308.24v96" stroke="#333" fill="none"/><use xlink:href="#F" transform="matrix(1,0,0,1,113.88012753586065,268.237049534683) translate(176.525 23.6)"/><use xlink:href="#p" transform="matrix(1,0,0,1,108.88012753586065,310.737049534683) translate(13 17.1)"/><use xlink:href="#q" transform="matrix(1,0,0,1,168.88012753586065,310.737049534683) translate(131.025 17.1)"/><use xlink:href="#r" transform="matrix(1,0,0,1,464.1979960259766,310.737049534683) translate(8.049999999999997 17.1)"/><use xlink:href="#G" transform="matrix(1,0,0,1,168.88012753586065,342.737049534683) translate(124 17.1)"/><use xlink:href="#t" transform="matrix(1,0,0,1,464.1979960259766,342.737049534683) translate(13.55 17.1)"/><use xlink:href="#B" transform="matrix(1,0,0,1,168.88012753586065,374.737049534683) translate(101.575 17.1)"/><use xlink:href="#C" transform="matrix(1,0,0,1,464.1979960259766,374.737049534683) translate(18 17.1)"/><path d="M627.26 612.56H75.38a12 12 0 0 1-12-12V336.2a12 12 0 0 1 12-12h8.6" stroke="#333" fill="none"/><path d="M627.26 602.56v20M647.26 612.56h-20" stroke="#333" fill="#fff"/><path d="M103.16 334.2l-20-10 20-10" stroke="#333" fill="#fff" fill-opacity="0"/><path d="M103.16 324.2h-20" stroke="#333" fill="#fff"/><path d="M1258.62 276.24a8 8 0 0 1 8-8h519.88a8 8 0 0 1 8 8v312a8 8 0 0 1-8 8h-519.88a8 8 0 0 1-8-8z" fill="#fff"/><path d="M1258.62 276.24a8 8 0 0 1 8-8h519.88a8 8 0 0 1 8 8v312a8 8 0 0 1-8 8h-519.88a8 8 0 0 1-8-8zM1258.62 308.24h535.88M1318.62 308.24v288M1702.8 308.24v288" stroke="#333" fill="none"/><use xlink:href="#H" transform="matrix(1,0,0,1,1268.6187845303866,268.237049534683) translate(228.5 23.6)"/><use xlink:href="#p" transform="matrix(1,0,0,1,1263.6187845303866,310.737049534683) translate(13 17.1)"/><use xlink:href="#q" transform="matrix(1,0,0,1,1323.6187845303866,310.737049534683) translate(175.525 17.1)"/><use xlink:href="#r" transform="matrix(1,0,0,1,1707.8130774628905,310.737049534683) translate(13.549999999999997 17.1)"/><use xlink:href="#I" transform="matrix(1,0,0,1,1323.6187845303866,342.737049534683) translate(150.5 17.1)"/><use xlink:href="#t" transform="matrix(1,0,0,1,1707.8130774628905,342.737049534683) translate(19.05 17.1)"/><use xlink:href="#J" transform="matrix(1,0,0,1,1323.6187845303866,374.737049534683) translate(134.05 17.1)"/><use xlink:href="#t" transform="matrix(1,0,0,1,1707.8130774628905,374.737049534683) translate(19.05 17.1)"/><use xlink:href="#K" transform="matrix(1,0,0,1,1323.6187845303866,406.737049534683) translate(116.625 17.1)"/><use xlink:href="#t" transform="matrix(1,0,0,1,1707.8130774628905,406.737049534683) translate(19.05 17.1)"/><use xlink:href="#L" transform="matrix(1,0,0,1,1323.6187845303866,438.737049534683) translate(117.05 17.1)"/><use xlink:href="#t" transform="matrix(1,0,0,1,1707.8130774628905,438.737049534683) translate(19.05 17.1)"/><use xlink:href="#D" transform="matrix(1,0,0,1,1263.6187845303866,470.737049534683) translate(13.524999999999999 17.1)"/><use xlink:href="#M" transform="matrix(1,0,0,1,1323.6187845303866,470.737049534683) translate(150.025 17.1)"/><use xlink:href="#r" transform="matrix(1,0,0,1,1707.8130774628905,470.737049534683) translate(13.549999999999997 17.1)"/><use xlink:href="#N" transform="matrix(1,0,0,1,1323.6187845303866,502.737049534683) translate(158.5 17.1)"/><use xlink:href="#t" transform="matrix(1,0,0,1,1707.8130774628905,502.737049534683) translate(19.05 17.1)"/><use xlink:href="#O" transform="matrix(1,0,0,1,1323.6187845303866,534.737049534683) translate(136.55 17.1)"/><use xlink:href="#t" transform="matrix(1,0,0,1,1707.8130774628905,534.737049534683) translate(19.05 17.1)"/><use xlink:href="#B" transform="matrix(1,0,0,1,1323.6187845303866,566.737049534683) translate(146.075 17.1)"/><use xlink:href="#C" transform="matrix(1,0,0,1,1707.8130774628905,566.737049534683) translate(23.5 17.1)"/><path d="M1238.12 484.33h-21.74a12 12 0 0 1-12-12V336a12 12 0 0 0-12-12h-22.33" stroke="#333" fill="none"/><path d="M1238.12 474.33v20M1258.12 484.33h-20" stroke="#333" fill="#fff"/><path d="M1150.87 314l20 10-20 10" stroke="#333" fill="#fff" fill-opacity="0"/><path d="M1150.87 324h20" stroke="#333" fill="#fff"/><path d="M168 708a8 8 0 0 1 8-8h285.67a8 8 0 0 1 8 8v120a8 8 0 0 1-8 8H176a8 8 0 0 1-8-8z" fill="#fff"/><path d="M168 708a8 8 0 0 1 8-8h285.67a8 8 0 0 1 8 8v120a8 8 0 0 1-8 8H176a8 8 0 0 1-8-8zM168 740h301.67M228 740v96M386.88 740v96" stroke="#333" fill="none"/><use xlink:href="#P" transform="matrix(1,0,0,1,178.01104972375694,699.9999999986626) translate(122.55 23.6)"/><use xlink:href="#p" transform="matrix(1,0,0,1,173.01104972375694,742.4999999986626) translate(13 17.1)"/><use xlink:href="#q" transform="matrix(1,0,0,1,233.01104972375694,742.4999999986626) translate(62.525 17.1)"/><use xlink:href="#r" transform="matrix(1,0,0,1,391.8800579948952,742.4999999986626) translate(9.049999999999997 17.1)"/><use xlink:href="#G" transform="matrix(1,0,0,1,233.01104972375694,774.4999999986626) translate(55.5 17.1)"/><use xlink:href="#t" transform="matrix(1,0,0,1,391.8800579948952,774.4999999986626) translate(14.55 17.1)"/><use xlink:href="#B" transform="matrix(1,0,0,1,233.01104972375694,806.4999999986626) translate(33.075 17.1)"/><use xlink:href="#C" transform="matrix(1,0,0,1,391.8800579948952,806.4999999986626) translate(19 17.1)"/><path d="M539.28 724a8 8 0 0 1 8-8h262.46a8 8 0 0 1 8 8v120a8 8 0 0 1-8 8H547.28a8 8 0 0 1-8-8z" fill="#fff"/><path d="M539.28 724a8 8 0 0 1 8-8h262.46a8 8 0 0 1 8 8v120a8 8 0 0 1-8 8H547.28a8 8 0 0 1-8-8zM539.28 756h278.46M599.28 756v96M746.52 756v96" stroke="#333" fill="none"/><use xlink:href="#Q" transform="matrix(1,0,0,1,549.2817679558011,715.9999999986626) translate(101.05 23.6)"/><use xlink:href="#p" transform="matrix(1,0,0,1,544.2817679558011,758.4999999986626) translate(13 17.1)"/><use xlink:href="#q" transform="matrix(1,0,0,1,604.2817679558011,758.4999999986626) translate(57.025 17.1)"/><use xlink:href="#r" transform="matrix(1,0,0,1,751.5194557526413,758.4999999986626) translate(3.549999999999997 17.1)"/><use xlink:href="#G" transform="matrix(1,0,0,1,604.2817679558011,790.4999999986626) translate(50 17.1)"/><use xlink:href="#t" transform="matrix(1,0,0,1,751.5194557526413,790.4999999986626) translate(9.05 17.1)"/><use xlink:href="#B" transform="matrix(1,0,0,1,604.2817679558011,822.4999999986626) translate(27.575000000000003 17.1)"/><use xlink:href="#C" transform="matrix(1,0,0,1,751.5194557526413,822.4999999986626) translate(13.5 17.1)"/><path d="M1920 276.24a8 8 0 0 1 8-8h332.07a8 8 0 0 1 8 8v408a8 8 0 0 1-8 8H1928a8 8 0 0 1-8-8z" fill="#fff"/><path d="M1920 276.24a8 8 0 0 1 8-8h332.07a8 8 0 0 1 8 8v408a8 8 0 0 1-8 8H1928a8 8 0 0 1-8-8zM1920 308.24h348.07M1980 308.24v384M2185 308.24v384" stroke="#333" fill="none"/><use xlink:href="#R" transform="matrix(1,0,0,1,1930,268.23704953468297) translate(106.1 23.6)"/><use xlink:href="#p" transform="matrix(1,0,0,1,1925,310.73704953468297) translate(13 17.1)"/><use xlink:href="#q" transform="matrix(1,0,0,1,1985,310.73704953468297) translate(86.025 17.1)"/><use xlink:href="#r" transform="matrix(1,0,0,1,2190.0154211495587,310.73704953468297) translate(9.549999999999997 17.1)"/><use xlink:href="#D" transform="matrix(1,0,0,1,1925,342.73704953468297) translate(13.524999999999999 17.1)"/><use xlink:href="#E" transform="matrix(1,0,0,1,1985,342.73704953468297) translate(63.525 17.1)"/><use xlink:href="#r" transform="matrix(1,0,0,1,2190.0154211495587,342.73704953468297) translate(9.549999999999997 17.1)"/><use xlink:href="#D" transform="matrix(1,0,0,1,1925,374.73704953468297) translate(13.524999999999999 17.1)"/><use xlink:href="#H" transform="matrix(1,0,0,1,1985,374.73704953468297) translate(68.5 17.1)"/><use xlink:href="#r" transform="matrix(1,0,0,1,2190.0154211495587,374.73704953468297) translate(9.549999999999997 17.1)"/><use xlink:href="#D" transform="matrix(1,0,0,1,1925,406.73704953468297) translate(13.524999999999999 17.1)"/><use xlink:href="#S" transform="matrix(1,0,0,1,1985,406.73704953468297) translate(62.05 17.1)"/><use xlink:href="#r" transform="matrix(1,0,0,1,2190.0154211495587,406.73704953468297) translate(9.549999999999997 17.1)"/><use xlink:href="#T" transform="matrix(1,0,0,1,1985,438.73704953468297) translate(78.5 17.1)"/><use xlink:href="#U" transform="matrix(1,0,0,1,2190.0154211495587,438.73704953468297) translate(6.549999999999997 17.1)"/><use xlink:href="#V" transform="matrix(1,0,0,1,1985,470.73704953468297) translate(63.55 17.1)"/><use xlink:href="#U" transform="matrix(1,0,0,1,2190.0154211495587,470.73704953468297) translate(6.549999999999997 17.1)"/><use xlink:href="#W" transform="matrix(1,0,0,1,1985,502.73704953468297) translate(78.5 17.1)"/><use xlink:href="#U" transform="matrix(1,0,0,1,2190.0154211495587,502.73704953468297) translate(6.549999999999997 17.1)"/><use xlink:href="#X" transform="matrix(1,0,0,1,1985,534.7370495346829) translate(63.55 17.1)"/><use xlink:href="#U" transform="matrix(1,0,0,1,2190.0154211495587,534.7370495346829) translate(6.549999999999997 17.1)"/><use xlink:href="#Y" transform="matrix(1,0,0,1,1985,566.7370495346829) translate(70.525 17.1)"/><use xlink:href="#U" transform="matrix(1,0,0,1,2190.0154211495587,566.7370495346829) translate(6.549999999999997 17.1)"/><use xlink:href="#Z" transform="matrix(1,0,0,1,1985,598.7370495346829) translate(56.574999999999996 17.1)"/><use xlink:href="#U" transform="matrix(1,0,0,1,2190.0154211495587,598.7370495346829) translate(6.549999999999997 17.1)"/><use xlink:href="#D" transform="matrix(1,0,0,1,1925,630.7370495346829) translate(13.524999999999999 17.1)"/><use xlink:href="#aa" transform="matrix(1,0,0,1,1985,630.7370495346829) translate(72.05 17.1)"/><use xlink:href="#r" transform="matrix(1,0,0,1,2190.0154211495587,630.7370495346829) translate(9.549999999999997 17.1)"/><use xlink:href="#B" transform="matrix(1,0,0,1,1985,662.7370495346829) translate(56.575 17.1)"/><use xlink:href="#C" transform="matrix(1,0,0,1,2190.0154211495587,662.7370495346829) translate(19.5 17.1)"/><path d="M1815 324.04h30.25a12 12 0 0 1 12 12v40.24a12 12 0 0 0 12 12h30.84" stroke="#333" fill="none"/><path d="M1815 334.04v-20M1795 324.04h20" stroke="#333" fill="#fff"/><path d="M1919.28 398.28l-20-10 20-10" stroke="#333" fill="#fff" fill-opacity="0"/><path d="M1919.28 388.28h-20" stroke="#333" fill="#fff"/><path d="M1900.1 644.16H122a12 12 0 0 0-12 12v87.8a12 12 0 0 0 12 12h25.5" stroke="#333" fill="none"/><path d="M1919.28 654.16l-20-10 20-10" stroke="#333" fill="#fff" fill-opacity="0"/><path d="M1919.28 644.16h-20M147.5 745.96v20M167.5 755.96h-20" stroke="#333" fill="#fff"/><path d="M1900.1 420.26h-72.57a12 12 0 0 0-12 12V668a12 12 0 0 1-12 12H736.66a10 10 0 0 0-10 10 10 10 0 0 0 10 10h116.06a12 12 0 0 1 12 12v47.96a12 12 0 0 1-12 12h-14.5" stroke="#333" fill="none"/><path d="M1919.28 430.26l-20-10 20-10" stroke="#333" fill="#fff" fill-opacity="0"/><path d="M1919.28 420.26h-20M838.24 781.96v-20M818.24 771.96h20" stroke="#333" fill="#fff"/><path d="M1900.1 356.3a1.6 1.6 0 0 1-1.6-1.6V322a12 12 0 0 0-12-12h-35.77a12 12 0 0 1-12-12v-36a12 12 0 0 0-12-12H640.36a12 12 0 0 0-12 12v50.2a12 12 0 0 1-12 12h-56.58" stroke="#333" fill="none"/><path d="M1919.28 366.3l-20-10 20-10" stroke="#333" fill="#fff" fill-opacity="0"/><path d="M1919.28 356.3h-20M559.78 334.2v-20M539.78 324.2h20" stroke="#333" fill="#fff"/><path d="M910.55 708a8 8 0 0 1 8-8h277.68a8 8 0 0 1 8 8v152a8 8 0 0 1-8 8H918.55a8 8 0 0 1-8-8z" fill="#fff"/><path d="M910.55 708a8 8 0 0 1 8-8h277.68a8 8 0 0 1 8 8v152a8 8 0 0 1-8 8H918.55a8 8 0 0 1-8-8zM910.55 740h293.68M970.55 740v128M1121.08 740v128" stroke="#333" fill="none"/><use xlink:href="#ab" transform="matrix(1,0,0,1,920.5524861878453,699.9999999986626) translate(108.525 23.6)"/><use xlink:href="#p" transform="matrix(1,0,0,1,915.5524861878453,742.4999999986626) translate(13 17.1)"/><use xlink:href="#q" transform="matrix(1,0,0,1,975.5524861878453,742.4999999986626) translate(58.525 17.1)"/><use xlink:href="#r" transform="matrix(1,0,0,1,1126.0827812510095,742.4999999986626) translate(9.549999999999997 17.1)"/><g><use xlink:href="#D" transform="matrix(1,0,0,1,915.5524861878453,774.4999999986626) translate(13.524999999999999 17.1)"/></g><g><use xlink:href="#H" transform="matrix(1,0,0,1,975.5524861878453,774.4999999986626) translate(41 17.1)"/></g><g><use xlink:href="#r" transform="matrix(1,0,0,1,1126.0827812510095,774.4999999986626) translate(9.549999999999997 17.1)"/></g><g><use xlink:href="#G" transform="matrix(1,0,0,1,975.5524861878453,806.4999999986626) translate(51.5 17.1)"/></g><g><use xlink:href="#t" transform="matrix(1,0,0,1,1126.0827812510095,806.4999999986626) translate(15.05 17.1)"/></g><g><use xlink:href="#B" transform="matrix(1,0,0,1,975.5524861878453,838.4999999986626) translate(29.075000000000003 17.1)"/></g><g><use xlink:href="#C" transform="matrix(1,0,0,1,1126.0827812510095,838.4999999986626) translate(19.5 17.1)"/></g><path d="M1224.73 788a10.7 10.7 0 0 0 10.68-10.67v-450a3.3 3.3 0 0 1 3.3-3.3" stroke="#333" fill="none"/><path d="M1224.73 798v-20M1204.73 788h20" stroke="#333" fill="#fff"/><path d="M1257.9 334.04l-20-10 20-10" stroke="#333" fill="#fff" fill-opacity="0"/><path d="M1257.9 324.04h-20" stroke="#333" fill="#fff"/><defs><path fill="#a9afb8" d="M24-248c120-7 223 5 221 122C244-46 201 0 124 0H24v-248zM76-40c74 7 117-18 117-86 0-67-45-88-117-82v168" id="ac"/><path fill="#a9afb8" d="M25-224v-37h50v37H25zM25 0v-190h50V0H25" id="ad"/><path fill="#a9afb8" d="M133-34C117-15 103 5 69 4 32 3 11-16 11-54c-1-60 55-63 116-61 1-26-3-47-28-47-18 1-26 9-28 27l-52-2c7-38 36-58 82-57s74 22 75 68l1 82c-1 14 12 18 25 15v27c-30 8-71 5-69-32zm-48 3c29 0 43-24 42-57-32 0-66-3-65 30 0 17 8 27 23 27" id="ae"/><path fill="#a9afb8" d="M195-6C206 82 75 100 31 46c-4-6-6-13-8-21l49-6c3 16 16 24 34 25 40 0 42-37 40-79-11 22-30 35-61 35-53 0-70-43-70-97 0-56 18-96 73-97 30 0 46 14 59 34l2-30h47zm-90-29c32 0 41-27 41-63 0-35-9-62-40-62-32 0-39 29-40 63 0 36 9 62 39 62" id="af"/><path fill="#a9afb8" d="M135-150c-39-12-60 13-60 57V0H25l-1-190h47c2 13-1 29 3 40 6-28 27-53 61-41v41" id="ag"/><path fill="#a9afb8" d="M220-157c-53 9-28 100-34 157h-49v-107c1-27-5-49-29-50C55-147 81-57 75 0H25l-1-190h47c2 12-1 28 3 38 10-53 101-56 108 0 13-22 24-43 59-42 82 1 51 116 57 194h-49v-107c-1-25-5-48-29-50" id="ah"/><g id="a"><use transform="matrix(0.0728395061728395,0,0,0.0728395061728395,0,0)" xlink:href="#ac"/><use transform="matrix(0.0728395061728395,0,0,0.0728395061728395,18.86543209876543,0)" xlink:href="#ad"/><use transform="matrix(0.0728395061728395,0,0,0.0728395061728395,26.14938271604938,0)" xlink:href="#ae"/><use transform="matrix(0.0728395061728395,0,0,0.0728395061728395,40.717283950617286,0)" xlink:href="#af"/><use transform="matrix(0.0728395061728395,0,0,0.0728395061728395,56.66913580246913,0)" xlink:href="#ag"/><use transform="matrix(0.0728395061728395,0,0,0.0728395061728395,66.86666666666666,0)" xlink:href="#ae"/><use transform="matrix(0.0728395061728395,0,0,0.0728395061728395,81.43456790123457,0)" xlink:href="#ah"/><use transform="matrix(0.0728395061728395,0,0,0.0728395061728395,104.7432098765432,0)" xlink:href="#ae"/></g><path fill="#a9afb8" d="M24 0v-248h195v40H76v63h132v40H76v65h150V0H24" id="ai"/><path fill="#a9afb8" d="M240-174c0 40-23 61-54 70L253 0h-59l-57-94H76V0H24v-248c93 4 217-23 216 74zM76-134c48-2 112 12 112-38 0-48-66-32-112-35v73" id="aj"/><g id="b"><use transform="matrix(0.0728395061728395,0,0,0.0728395061728395,0,0)" xlink:href="#ai"/><use transform="matrix(0.0728395061728395,0,0,0.0728395061728395,17.48148148148148,0)" xlink:href="#aj"/></g><path fill="#a9afb8" d="M88-194c31-1 46 15 58 34l-1-101h50l1 261h-48c-2-10 0-23-3-31C134-8 116 4 84 4 32 4 16-41 15-95c0-56 19-97 73-99zm17 164c33 0 40-30 41-66 1-37-9-64-41-64s-38 30-39 65c0 43 13 65 39 65" id="ak"/><path fill="#a9afb8" d="M185-48c-13 30-37 53-82 52C43 2 14-33 14-96s30-98 90-98c62 0 83 45 84 108H66c0 31 8 55 39 56 18 0 30-7 34-22zm-45-69c5-46-57-63-70-21-2 6-4 13-4 21h74" id="al"/><g id="c"><use transform="matrix(0.0728395061728395,0,0,0.0728395061728395,0,0)" xlink:href="#ak"/><use transform="matrix(0.0728395061728395,0,0,0.0728395061728395,15.95185185185185,0)" xlink:href="#al"/></g><path fill="#a9afb8" d="M135-194c52 0 70 43 70 98 0 56-19 99-73 100-30 1-46-15-58-35L72 0H24l1-261h50v104c11-23 29-37 60-37zM114-30c31 0 40-27 40-66 0-37-7-63-39-63s-41 28-41 65c0 36 8 64 40 64" id="am"/><path fill="#a9afb8" d="M137-138c1-29-70-34-71-4 15 46 118 7 119 86 1 83-164 76-172 9l43-7c4 19 20 25 44 25 33 8 57-30 24-41C81-84 22-81 20-136c-2-80 154-74 161-7" id="an"/><g id="d"><use transform="matrix(0.0728395061728395,0,0,0.0728395061728395,0,0)" xlink:href="#am"/><use transform="matrix(0.0728395061728395,0,0,0.0728395061728395,15.95185185185185,0)" xlink:href="#ae"/><use transform="matrix(0.0728395061728395,0,0,0.0728395061728395,30.51975308641975,0)" xlink:href="#an"/><use transform="matrix(0.0728395061728395,0,0,0.0728395061728395,45.08765432098765,0)" xlink:href="#al"/></g><path fill="#a9afb8" d="M115-3C79 11 28 4 28-45v-112H4v-33h27l15-45h31v45h36v33H77v99c-1 23 16 31 38 25v30" id="ao"/><path fill="#a9afb8" d="M110-194c64 0 96 36 96 99 0 64-35 99-97 99-61 0-95-36-95-99 0-62 34-99 96-99zm-1 164c35 0 45-28 45-65 0-40-10-65-43-65-34 0-45 26-45 65 0 36 10 65 43 65" id="ap"/><g id="e"><use transform="matrix(0.0728395061728395,0,0,0.0728395061728395,0,0)" xlink:href="#ak"/><use transform="matrix(0.0728395061728395,0,0,0.0728395061728395,15.95185185185185,0)" xlink:href="#ae"/><use transform="matrix(0.0728395061728395,0,0,0.0728395061728395,30.51975308641975,0)" xlink:href="#ao"/><use transform="matrix(0.0728395061728395,0,0,0.0728395061728395,39.187654320987654,0)" xlink:href="#ap"/><use transform="matrix(0.0728395061728395,0,0,0.0728395061728395,55.1395061728395,0)" xlink:href="#an"/></g><path fill="#a9afb8" d="M67-93c0 74 22 123 53 168H70C40 30 18-18 18-93s22-123 52-168h50c-32 44-53 94-53 168" id="aq"/><path fill="#a9afb8" d="M169-182c-1-43-94-46-97-3 18 66 151 10 154 114 3 95-165 93-204 36-6-8-10-19-12-30l50-8c3 46 112 56 116 5-17-69-150-10-154-114-4-87 153-88 188-35 5 8 8 18 10 28" id="ar"/><path fill="#a9afb8" d="M190-63c-7 42-38 67-86 67-59 0-84-38-90-98-12-110 154-137 174-36l-49 2c-2-19-15-32-35-32-30 0-35 28-38 64-6 74 65 87 74 30" id="as"/><path fill="#a9afb8" d="M114-157C55-157 80-60 75 0H25v-261h50l-1 109c12-26 28-41 61-42 86-1 58 113 63 194h-50c-7-57 23-157-34-157" id="at"/><path fill="#a9afb8" d="M25 0v-261h50V0H25" id="au"/><g id="f"><use transform="matrix(0.0728395061728395,0,0,0.0728395061728395,0,0)" xlink:href="#aq"/><use transform="matrix(0.0728395061728395,0,0,0.0728395061728395,8.667901234567902,0)" xlink:href="#ar"/><use transform="matrix(0.0728395061728395,0,0,0.0728395061728395,26.14938271604938,0)" xlink:href="#as"/><use transform="matrix(0.0728395061728395,0,0,0.0728395061728395,40.717283950617286,0)" xlink:href="#at"/><use transform="matrix(0.0728395061728395,0,0,0.0728395061728395,56.66913580246913,0)" xlink:href="#ap"/><use transform="matrix(0.0728395061728395,0,0,0.0728395061728395,72.62098765432098,0)" xlink:href="#ap"/><use transform="matrix(0.0728395061728395,0,0,0.0728395061728395,88.57283950617284,0)" xlink:href="#au"/></g><path fill="#a9afb8" d="M140-251c80 0 125 45 125 126S219 4 139 4C58 4 15-44 15-125s44-126 125-126zm-1 214c52 0 73-35 73-88 0-50-21-86-72-86-52 0-73 35-73 86s22 88 72 88" id="av"/><path fill="#a9afb8" d="M121-226c-27-7-43 5-38 36h38v33H83V0H34v-157H6v-33h28c-9-59 32-81 87-68v32" id="aw"/><path fill="#a9afb8" d="M102-93c0 74-22 123-52 168H0C30 29 54-18 53-93c0-74-22-123-53-168h50c30 45 52 94 52 168" id="ax"/><g id="g"><use transform="matrix(0.0728395061728395,0,0,0.0728395061728395,0,0)" xlink:href="#av"/><use transform="matrix(0.0728395061728395,0,0,0.0728395061728395,20.39506172839506,0)" xlink:href="#aw"/><use transform="matrix(0.0728395061728395,0,0,0.0728395061728395,29.062962962962963,0)" xlink:href="#aw"/><use transform="matrix(0.0728395061728395,0,0,0.0728395061728395,37.73086419753086,0)" xlink:href="#ad"/><use transform="matrix(0.0728395061728395,0,0,0.0728395061728395,45.01481481481481,0)" xlink:href="#as"/><use transform="matrix(0.0728395061728395,0,0,0.0728395061728395,59.582716049382704,0)" xlink:href="#al"/><use transform="matrix(0.0728395061728395,0,0,0.0728395061728395,74.15061728395061,0)" xlink:href="#ax"/></g><path fill="#a9afb8" d="M30-248c118-7 216 8 213 122C240-48 200 0 122 0H30v-248zM63-27c89 8 146-16 146-99s-60-101-146-95v194" id="ay"/><path fill="#a9afb8" d="M24-231v-30h32v30H24zM24 0v-190h32V0H24" id="az"/><path fill="#a9afb8" d="M100-194c63 0 86 42 84 106H49c0 40 14 67 53 68 26 1 43-12 49-29l28 8c-11 28-37 45-77 45C44 4 14-33 15-96c1-61 26-98 85-98zm52 81c6-60-76-77-97-28-3 7-6 17-6 28h103" id="aA"/><path fill="#a9afb8" d="M177-190C167-65 218 103 67 71c-23-6-38-20-44-43l32-5c15 47 100 32 89-28v-30C133-14 115 1 83 1 29 1 15-40 15-95c0-56 16-97 71-98 29-1 48 16 59 35 1-10 0-23 2-32h30zM94-22c36 0 50-32 50-73 0-42-14-75-50-75-39 0-46 34-46 75s6 73 46 73" id="aB"/><path fill="#a9afb8" d="M100-194c62-1 85 37 85 99 1 63-27 99-86 99S16-35 15-95c0-66 28-99 85-99zM99-20c44 1 53-31 53-75 0-43-8-75-51-75s-53 32-53 75 10 74 51 75" id="aC"/><g id="h"><use transform="matrix(0.04248971193415638,0,0,0.04248971193415638,0,0)" xlink:href="#ay"/><use transform="matrix(0.04248971193415638,0,0,0.04248971193415638,11.004835390946502,0)" xlink:href="#az"/><use transform="matrix(0.04248971193415638,0,0,0.04248971193415638,14.361522633744855,0)" xlink:href="#aA"/><use transform="matrix(0.04248971193415638,0,0,0.04248971193415638,22.85946502057613,0)" xlink:href="#aB"/><use transform="matrix(0.04248971193415638,0,0,0.04248971193415638,31.357407407407408,0)" xlink:href="#aC"/></g><path fill="#a9afb8" d="M63-220v92h138v28H63V0H30v-248h175v28H63" id="aD"/><path fill="#a9afb8" d="M114-163C36-179 61-72 57 0H25l-1-190h30c1 12-1 29 2 39 6-27 23-49 58-41v29" id="aE"/><path fill="#a9afb8" d="M117-194c89-4 53 116 60 194h-32v-121c0-31-8-49-39-48C34-167 62-67 57 0H25l-1-190h30c1 10-1 24 2 32 11-22 29-35 61-36" id="aF"/><path fill="#a9afb8" d="M141-36C126-15 110 5 73 4 37 3 15-17 15-53c-1-64 63-63 125-63 3-35-9-54-41-54-24 1-41 7-42 31l-33-3c5-37 33-52 76-52 45 0 72 20 72 64v82c-1 20 7 32 28 27v20c-31 9-61-2-59-35zM48-53c0 20 12 33 32 33 41-3 63-29 60-74-43 2-92-5-92 41" id="aG"/><path fill="#a9afb8" d="M85-194c31 0 48 13 60 33l-1-100h32l1 261h-30c-2-10 0-23-3-31C134-8 116 4 85 4 32 4 16-35 15-94c0-66 23-100 70-100zm9 24c-40 0-46 34-46 75 0 40 6 74 45 74 42 0 51-32 51-76 0-42-9-74-50-73" id="aH"/><path fill="#a9afb8" d="M9 0v-24l116-142H16v-24h144v24L44-24h123V0H9" id="aI"/><g id="i"><use transform="matrix(0.04248971193415638,0,0,0.04248971193415638,0,0)" xlink:href="#aD"/><use transform="matrix(0.04248971193415638,0,0,0.04248971193415638,9.305246913580246,0)" xlink:href="#aA"/><use transform="matrix(0.04248971193415638,0,0,0.04248971193415638,17.80318930041152,0)" xlink:href="#aE"/><use transform="matrix(0.04248971193415638,0,0,0.04248971193415638,22.85946502057613,0)" xlink:href="#aF"/><use transform="matrix(0.04248971193415638,0,0,0.04248971193415638,31.357407407407408,0)" xlink:href="#aG"/><use transform="matrix(0.04248971193415638,0,0,0.04248971193415638,39.855349794238684,0)" xlink:href="#aF"/><use transform="matrix(0.04248971193415638,0,0,0.04248971193415638,48.35329218106995,0)" xlink:href="#aH"/><use transform="matrix(0.04248971193415638,0,0,0.04248971193415638,56.851234567901244,0)" xlink:href="#aA"/><use transform="matrix(0.04248971193415638,0,0,0.04248971193415638,65.34917695473251,0)" xlink:href="#aI"/></g><path fill="#a9afb8" d="M240 0l2-218c-23 76-54 145-80 218h-23L58-218 59 0H30v-248h44l77 211c21-75 51-140 76-211h43V0h-30" id="aJ"/><path fill="#a9afb8" d="M59-47c-2 24 18 29 38 22v24C64 9 27 4 27-40v-127H5v-23h24l9-43h21v43h35v23H59v120" id="aK"/><g id="j"><use transform="matrix(0.04248971193415638,0,0,0.04248971193415638,0,0)" xlink:href="#aJ"/><use transform="matrix(0.04248971193415638,0,0,0.04248971193415638,12.704423868312757,0)" xlink:href="#aC"/><use transform="matrix(0.04248971193415638,0,0,0.04248971193415638,21.20236625514403,0)" xlink:href="#aF"/><use transform="matrix(0.04248971193415638,0,0,0.04248971193415638,29.7003086419753,0)" xlink:href="#aK"/><use transform="matrix(0.04248971193415638,0,0,0.04248971193415638,33.94927983539094,0)" xlink:href="#aA"/><use transform="matrix(0.04248971193415638,0,0,0.04248971193415638,42.447222222222216,0)" xlink:href="#aE"/><use transform="matrix(0.04248971193415638,0,0,0.04248971193415638,47.50349794238682,0)" xlink:href="#aC"/></g><path fill="#a9afb8" d="M32 76v-337h29V76H32" id="aL"/><use transform="matrix(0.04248971193415638,0,0,0.04248971193415638,0,0)" xlink:href="#aL" id="k"/><path fill="#a9afb8" d="M115-194c53 0 69 39 70 98 0 66-23 100-70 100C84 3 66-7 56-30L54 0H23l1-261h32v101c10-23 28-34 59-34zm-8 174c40 0 45-34 45-75 0-40-5-75-45-74-42 0-51 32-51 76 0 43 10 73 51 73" id="aM"/><path fill="#a9afb8" d="M84 4C-5 8 30-112 23-190h32v120c0 31 7 50 39 49 72-2 45-101 50-169h31l1 190h-30c-1-10 1-25-2-33-11 22-28 36-60 37" id="aN"/><path fill="#a9afb8" d="M179-190L93 31C79 59 56 82 12 73V49c39 6 53-20 64-50L1-190h34L92-34l54-156h33" id="aO"/><g id="l"><use transform="matrix(0.04248971193415638,0,0,0.04248971193415638,0,0)" xlink:href="#aD"/><use transform="matrix(0.04248971193415638,0,0,0.04248971193415638,9.305246913580246,0)" xlink:href="#aA"/><use transform="matrix(0.04248971193415638,0,0,0.04248971193415638,17.80318930041152,0)" xlink:href="#aM"/><use transform="matrix(0.04248971193415638,0,0,0.04248971193415638,26.301131687242794,0)" xlink:href="#aE"/><use transform="matrix(0.04248971193415638,0,0,0.04248971193415638,31.357407407407408,0)" xlink:href="#aN"/><use transform="matrix(0.04248971193415638,0,0,0.04248971193415638,39.85534979423868,0)" xlink:href="#aG"/><use transform="matrix(0.04248971193415638,0,0,0.04248971193415638,48.35329218106995,0)" xlink:href="#aE"/><use transform="matrix(0.04248971193415638,0,0,0.04248971193415638,53.40956790123455,0)" xlink:href="#aO"/></g><path fill="#a9afb8" d="M101-251c82-7 93 87 43 132L82-64C71-53 59-42 53-27h129V0H18c2-99 128-94 128-182 0-28-16-43-45-43s-46 15-49 41l-32-3c6-41 34-60 81-64" id="aP"/><path fill="#a9afb8" d="M68-38c1 34 0 65-14 84H32c9-13 17-26 17-46H33v-38h35" id="aQ"/><g id="m"><use transform="matrix(0.04248971193415638,0,0,0.04248971193415638,0,0)" xlink:href="#aP"/><use transform="matrix(0.04248971193415638,0,0,0.04248971193415638,8.497942386831275,0)" xlink:href="#aQ"/></g><path fill="#a9afb8" d="M101-251c68 0 85 55 85 127S166 4 100 4C33 4 14-52 14-124c0-73 17-127 87-127zm-1 229c47 0 54-49 54-102s-4-102-53-102c-51 0-55 48-55 102 0 53 5 102 54 102" id="aR"/><path fill="#a9afb8" d="M126-127c33 6 58 20 58 59 0 88-139 92-164 29-3-8-5-16-6-25l32-3c6 27 21 44 54 44 32 0 52-15 52-46 0-38-36-46-79-43v-28c39 1 72-4 72-42 0-27-17-43-46-43-28 0-47 15-49 41l-32-3c6-42 35-63 81-64 48-1 79 21 79 65 0 36-21 52-52 59" id="aS"/><g id="n"><use transform="matrix(0.04248971193415638,0,0,0.04248971193415638,0,0)" xlink:href="#aP"/><use transform="matrix(0.04248971193415638,0,0,0.04248971193415638,8.497942386831275,0)" xlink:href="#aR"/><use transform="matrix(0.04248971193415638,0,0,0.04248971193415638,16.99588477366255,0)" xlink:href="#aP"/><use transform="matrix(0.04248971193415638,0,0,0.04248971193415638,25.493827160493822,0)" xlink:href="#aS"/></g><path fill="#333" d="M84 4C-5 8 30-112 23-190h32v120c0 31 7 50 39 49 72-2 45-101 50-169h31l1 190h-30c-1-10 1-25-2-33-11 22-28 36-60 37" id="aT"/><path fill="#333" d="M135-143c-3-34-86-38-87 0 15 53 115 12 119 90S17 21 10-45l28-5c4 36 97 45 98 0-10-56-113-15-118-90-4-57 82-63 122-42 12 7 21 19 24 35" id="aU"/><path fill="#333" d="M100-194c63 0 86 42 84 106H49c0 40 14 67 53 68 26 1 43-12 49-29l28 8c-11 28-37 45-77 45C44 4 14-33 15-96c1-61 26-98 85-98zm52 81c6-60-76-77-97-28-3 7-6 17-6 28h103" id="aV"/><path fill="#333" d="M114-163C36-179 61-72 57 0H25l-1-190h30c1 12-1 29 2 39 6-27 23-49 58-41v29" id="aW"/><g id="o"><use transform="matrix(0.05,0,0,0.05,0,0)" xlink:href="#aT"/><use transform="matrix(0.05,0,0,0.05,10,0)" xlink:href="#aU"/><use transform="matrix(0.05,0,0,0.05,19,0)" xlink:href="#aV"/><use transform="matrix(0.05,0,0,0.05,29,0)" xlink:href="#aW"/><use transform="matrix(0.05,0,0,0.05,34.95,0)" xlink:href="#aU"/></g><path fill="#333" d="M30-248c87 1 191-15 191 75 0 78-77 80-158 76V0H30v-248zm33 125c57 0 124 11 124-50 0-59-68-47-124-48v98" id="aX"/><path fill="#333" d="M194 0L95-120 63-95V0H30v-248h33v124l119-124h40L117-140 236 0h-42" id="aY"/><g id="p"><use transform="matrix(0.05,0,0,0.05,0,0)" xlink:href="#aX"/><use transform="matrix(0.05,0,0,0.05,12,0)" xlink:href="#aY"/></g><path fill="#333" d="M-5 72V49h209v23H-5" id="aZ"/><path fill="#333" d="M24-231v-30h32v30H24zM24 0v-190h32V0H24" id="ba"/><path fill="#333" d="M85-194c31 0 48 13 60 33l-1-100h32l1 261h-30c-2-10 0-23-3-31C134-8 116 4 85 4 32 4 16-35 15-94c0-66 23-100 70-100zm9 24c-40 0-46 34-46 75 0 40 6 74 45 74 42 0 51-32 51-76 0-42-9-74-50-73" id="bb"/><g id="q"><use transform="matrix(0.05,0,0,0.05,0,0)" xlink:href="#aZ"/><use transform="matrix(0.05,0,0,0.05,10,0)" xlink:href="#ba"/><use transform="matrix(0.05,0,0,0.05,13.949999999999998,0)" xlink:href="#bb"/></g><path fill="#333" d="M117-194c89-4 53 116 60 194h-32v-121c0-31-8-49-39-48C34-167 62-67 57 0H25l-1-190h30c1 10-1 24 2 32 11-22 29-35 61-36" id="bc"/><path fill="#333" d="M59-47c-2 24 18 29 38 22v24C64 9 27 4 27-40v-127H5v-23h24l9-43h21v43h35v23H59v120" id="bd"/><path fill="#333" d="M177-190C167-65 218 103 67 71c-23-6-38-20-44-43l32-5c15 47 100 32 89-28v-30C133-14 115 1 83 1 29 1 15-40 15-95c0-56 16-97 71-98 29-1 48 16 59 35 1-10 0-23 2-32h30zM94-22c36 0 50-32 50-73 0-42-14-75-50-75-39 0-46 34-46 75s6 73 46 73" id="be"/><g id="r"><use transform="matrix(0.05,0,0,0.05,0,0)" xlink:href="#ba"/><use transform="matrix(0.05,0,0,0.05,3.95,0)" xlink:href="#bc"/><use transform="matrix(0.05,0,0,0.05,13.949999999999998,0)" xlink:href="#bd"/><use transform="matrix(0.05,0,0,0.05,18.95,0)" xlink:href="#aV"/><use transform="matrix(0.05,0,0,0.05,28.950000000000003,0)" xlink:href="#be"/><use transform="matrix(0.05,0,0,0.05,38.95,0)" xlink:href="#aV"/><use transform="matrix(0.05,0,0,0.05,48.95,0)" xlink:href="#aW"/></g><path fill="#333" d="M190 0L58-211 59 0H30v-248h39L202-35l-2-213h31V0h-41" id="bf"/><path fill="#333" d="M141-36C126-15 110 5 73 4 37 3 15-17 15-53c-1-64 63-63 125-63 3-35-9-54-41-54-24 1-41 7-42 31l-33-3c5-37 33-52 76-52 45 0 72 20 72 64v82c-1 20 7 32 28 27v20c-31 9-61-2-59-35zM48-53c0 20 12 33 32 33 41-3 63-29 60-74-43 2-92-5-92 41" id="bg"/><path fill="#333" d="M210-169c-67 3-38 105-44 169h-31v-121c0-29-5-50-35-48C34-165 62-65 56 0H25l-1-190h30c1 10-1 24 2 32 10-44 99-50 107 0 11-21 27-35 58-36 85-2 47 119 55 194h-31v-121c0-29-5-49-35-48" id="bh"/><g id="s"><use transform="matrix(0.05,0,0,0.05,0,0)" xlink:href="#aT"/><use transform="matrix(0.05,0,0,0.05,10,0)" xlink:href="#aU"/><use transform="matrix(0.05,0,0,0.05,19,0)" xlink:href="#aV"/><use transform="matrix(0.05,0,0,0.05,29,0)" xlink:href="#aW"/><use transform="matrix(0.05,0,0,0.05,34.95,0)" xlink:href="#bf"/><use transform="matrix(0.05,0,0,0.05,47.900000000000006,0)" xlink:href="#bg"/><use transform="matrix(0.05,0,0,0.05,57.900000000000006,0)" xlink:href="#bh"/><use transform="matrix(0.05,0,0,0.05,72.85000000000001,0)" xlink:href="#aV"/></g><g id="t"><use transform="matrix(0.05,0,0,0.05,0,0)" xlink:href="#aU"/><use transform="matrix(0.05,0,0,0.05,9,0)" xlink:href="#bd"/><use transform="matrix(0.05,0,0,0.05,14,0)" xlink:href="#aW"/><use transform="matrix(0.05,0,0,0.05,19.95,0)" xlink:href="#ba"/><use transform="matrix(0.05,0,0,0.05,23.9,0)" xlink:href="#bc"/><use transform="matrix(0.05,0,0,0.05,33.9,0)" xlink:href="#be"/></g><path fill="#333" d="M101-234c-31-9-42 10-38 44h38v23H63V0H32v-167H5v-23h27c-7-52 17-82 69-68v24" id="bi"/><g id="u"><use transform="matrix(0.05,0,0,0.05,0,0)" xlink:href="#bi"/><use transform="matrix(0.05,0,0,0.05,5,0)" xlink:href="#ba"/><use transform="matrix(0.05,0,0,0.05,8.95,0)" xlink:href="#aW"/><use transform="matrix(0.05,0,0,0.05,14.899999999999999,0)" xlink:href="#aU"/><use transform="matrix(0.05,0,0,0.05,23.9,0)" xlink:href="#bd"/><use transform="matrix(0.05,0,0,0.05,28.899999999999995,0)" xlink:href="#bf"/><use transform="matrix(0.05,0,0,0.05,41.85,0)" xlink:href="#bg"/><use transform="matrix(0.05,0,0,0.05,51.85,0)" xlink:href="#bh"/><use transform="matrix(0.05,0,0,0.05,66.8,0)" xlink:href="#aV"/></g><path fill="#333" d="M24 0v-261h32V0H24" id="bj"/><g id="v"><use transform="matrix(0.05,0,0,0.05,0,0)" xlink:href="#aV"/><use transform="matrix(0.05,0,0,0.05,10,0)" xlink:href="#bh"/><use transform="matrix(0.05,0,0,0.05,24.950000000000003,0)" xlink:href="#bg"/><use transform="matrix(0.05,0,0,0.05,34.95,0)" xlink:href="#ba"/><use transform="matrix(0.05,0,0,0.05,38.900000000000006,0)" xlink:href="#bj"/></g><path fill="#333" d="M115-194c55 1 70 41 70 98S169 2 115 4C84 4 66-9 55-30l1 105H24l-1-265h31l2 30c10-21 28-34 59-34zm-8 174c40 0 45-34 45-75s-6-73-45-74c-42 0-51 32-51 76 0 43 10 73 51 73" id="bk"/><path fill="#333" d="M206 0h-36l-40-164L89 0H53L-1-190h32L70-26l43-164h34l41 164 42-164h31" id="bl"/><path fill="#333" d="M100-194c62-1 85 37 85 99 1 63-27 99-86 99S16-35 15-95c0-66 28-99 85-99zM99-20c44 1 53-31 53-75 0-43-8-75-51-75s-53 32-53 75 10 74 51 75" id="bm"/><g id="w"><use transform="matrix(0.05,0,0,0.05,0,0)" xlink:href="#bk"/><use transform="matrix(0.05,0,0,0.05,10,0)" xlink:href="#bg"/><use transform="matrix(0.05,0,0,0.05,20,0)" xlink:href="#aU"/><use transform="matrix(0.05,0,0,0.05,29,0)" xlink:href="#aU"/><use transform="matrix(0.05,0,0,0.05,38,0)" xlink:href="#bl"/><use transform="matrix(0.05,0,0,0.05,50.95,0)" xlink:href="#bm"/><use transform="matrix(0.05,0,0,0.05,60.95,0)" xlink:href="#aW"/><use transform="matrix(0.05,0,0,0.05,66.9,0)" xlink:href="#bb"/></g><path fill="#333" d="M205 0l-28-72H64L36 0H1l101-248h38L239 0h-34zm-38-99l-47-123c-12 45-31 82-46 123h93" id="bn"/><g id="x"><use transform="matrix(0.05,0,0,0.05,0,0)" xlink:href="#ba"/><use transform="matrix(0.05,0,0,0.05,3.95,0)" xlink:href="#aU"/><use transform="matrix(0.05,0,0,0.05,12.949999999999998,0)" xlink:href="#bn"/><use transform="matrix(0.05,0,0,0.05,24.95,0)" xlink:href="#bb"/><use transform="matrix(0.05,0,0,0.05,34.95,0)" xlink:href="#bh"/><use transform="matrix(0.05,0,0,0.05,49.900000000000006,0)" xlink:href="#ba"/><use transform="matrix(0.05,0,0,0.05,53.85,0)" xlink:href="#bc"/></g><path fill="#333" d="M115-194c53 0 69 39 70 98 0 66-23 100-70 100C84 3 66-7 56-30L54 0H23l1-261h32v101c10-23 28-34 59-34zm-8 174c40 0 45-34 45-75 0-40-5-75-45-74-42 0-51 32-51 76 0 43 10 73 51 73" id="bo"/><g id="y"><use transform="matrix(0.05,0,0,0.05,0,0)" xlink:href="#bo"/><use transform="matrix(0.05,0,0,0.05,10,0)" xlink:href="#bm"/><use transform="matrix(0.05,0,0,0.05,20,0)" xlink:href="#bm"/><use transform="matrix(0.05,0,0,0.05,30,0)" xlink:href="#bj"/><use transform="matrix(0.05,0,0,0.05,33.95,0)" xlink:href="#aV"/><use transform="matrix(0.05,0,0,0.05,43.95,0)" xlink:href="#bg"/><use transform="matrix(0.05,0,0,0.05,53.95,0)" xlink:href="#bc"/></g><path fill="#333" d="M127-220V0H93v-220H8v-28h204v28h-85" id="bp"/><path fill="#333" d="M96-169c-40 0-48 33-48 73s9 75 48 75c24 0 41-14 43-38l32 2c-6 37-31 61-74 61-59 0-76-41-82-99-10-93 101-131 147-64 4 7 5 14 7 22l-32 3c-4-21-16-35-41-35" id="bq"/><path fill="#333" d="M106-169C34-169 62-67 57 0H25v-261h32l-1 103c12-21 28-36 61-36 89 0 53 116 60 194h-32v-121c2-32-8-49-39-48" id="br"/><g id="z"><use transform="matrix(0.05,0,0,0.05,0,0)" xlink:href="#ba"/><use transform="matrix(0.05,0,0,0.05,3.95,0)" xlink:href="#aU"/><use transform="matrix(0.05,0,0,0.05,12.949999999999998,0)" xlink:href="#bp"/><use transform="matrix(0.05,0,0,0.05,21.9,0)" xlink:href="#aV"/><use transform="matrix(0.05,0,0,0.05,31.899999999999995,0)" xlink:href="#bg"/><use transform="matrix(0.05,0,0,0.05,41.9,0)" xlink:href="#bq"/><use transform="matrix(0.05,0,0,0.05,50.9,0)" xlink:href="#br"/><use transform="matrix(0.05,0,0,0.05,60.900000000000006,0)" xlink:href="#aV"/><use transform="matrix(0.05,0,0,0.05,70.9,0)" xlink:href="#aW"/></g><path fill="#333" d="M143 0L79-87 56-68V0H24v-261h32v163l83-92h37l-77 82L181 0h-38" id="bs"/><g id="A"><use transform="matrix(0.05,0,0,0.05,0,0)" xlink:href="#bd"/><use transform="matrix(0.05,0,0,0.05,5,0)" xlink:href="#bm"/><use transform="matrix(0.05,0,0,0.05,15,0)" xlink:href="#bs"/><use transform="matrix(0.05,0,0,0.05,24,0)" xlink:href="#aV"/><use transform="matrix(0.05,0,0,0.05,34,0)" xlink:href="#bc"/></g><g id="B"><use transform="matrix(0.05,0,0,0.05,0,0)" xlink:href="#bd"/><use transform="matrix(0.05,0,0,0.05,5,0)" xlink:href="#ba"/><use transform="matrix(0.05,0,0,0.05,8.95,0)" xlink:href="#bh"/><use transform="matrix(0.05,0,0,0.05,23.9,0)" xlink:href="#aV"/><use transform="matrix(0.05,0,0,0.05,33.9,0)" xlink:href="#aU"/><use transform="matrix(0.05,0,0,0.05,42.9,0)" xlink:href="#bd"/><use transform="matrix(0.05,0,0,0.05,47.9,0)" xlink:href="#bg"/><use transform="matrix(0.05,0,0,0.05,57.900000000000006,0)" xlink:href="#bh"/><use transform="matrix(0.05,0,0,0.05,72.85,0)" xlink:href="#bk"/></g><g id="C"><use transform="matrix(0.05,0,0,0.05,0,0)" xlink:href="#bb"/><use transform="matrix(0.05,0,0,0.05,10,0)" xlink:href="#bg"/><use transform="matrix(0.05,0,0,0.05,20,0)" xlink:href="#bd"/><use transform="matrix(0.05,0,0,0.05,25,0)" xlink:href="#aV"/></g><path fill="#333" d="M63-220v92h138v28H63V0H30v-248h175v28H63" id="bt"/><g id="D"><use transform="matrix(0.05,0,0,0.05,0,0)" xlink:href="#bt"/><use transform="matrix(0.05,0,0,0.05,10.950000000000001,0)" xlink:href="#aY"/></g><path fill="#333" d="M33 0v-248h34V0H33" id="bu"/><g id="E"><use transform="matrix(0.05,0,0,0.05,0,0)" xlink:href="#bq"/><use transform="matrix(0.05,0,0,0.05,9,0)" xlink:href="#bm"/><use transform="matrix(0.05,0,0,0.05,19,0)" xlink:href="#aT"/><use transform="matrix(0.05,0,0,0.05,29,0)" xlink:href="#aW"/><use transform="matrix(0.05,0,0,0.05,34.95,0)" xlink:href="#aU"/><use transform="matrix(0.05,0,0,0.05,43.95,0)" xlink:href="#aV"/><use transform="matrix(0.05,0,0,0.05,53.95,0)" xlink:href="#bu"/><use transform="matrix(0.05,0,0,0.05,58.95,0)" xlink:href="#bb"/></g><g id="F"><use transform="matrix(0.05,0,0,0.05,0,0)" xlink:href="#bq"/><use transform="matrix(0.05,0,0,0.05,9,0)" xlink:href="#bm"/><use transform="matrix(0.05,0,0,0.05,19,0)" xlink:href="#aT"/><use transform="matrix(0.05,0,0,0.05,29,0)" xlink:href="#aW"/><use transform="matrix(0.05,0,0,0.05,34.95,0)" xlink:href="#aU"/><use transform="matrix(0.05,0,0,0.05,43.95,0)" xlink:href="#aV"/><use transform="matrix(0.05,0,0,0.05,53.95,0)" xlink:href="#aU"/></g><g id="G"><use transform="matrix(0.05,0,0,0.05,0,0)" xlink:href="#bb"/><use transform="matrix(0.05,0,0,0.05,10,0)" xlink:href="#aV"/><use transform="matrix(0.05,0,0,0.05,20,0)" xlink:href="#aU"/><use transform="matrix(0.05,0,0,0.05,29,0)" xlink:href="#bq"/></g><g id="H"><use transform="matrix(0.05,0,0,0.05,0,0)" xlink:href="#aU"/><use transform="matrix(0.05,0,0,0.05,9,0)" xlink:href="#bd"/><use transform="matrix(0.05,0,0,0.05,14,0)" xlink:href="#aT"/><use transform="matrix(0.05,0,0,0.05,24,0)" xlink:href="#bb"/><use transform="matrix(0.05,0,0,0.05,34,0)" xlink:href="#aV"/><use transform="matrix(0.05,0,0,0.05,44,0)" xlink:href="#bc"/><use transform="matrix(0.05,0,0,0.05,54,0)" xlink:href="#bd"/></g><g id="I"><use transform="matrix(0.05,0,0,0.05,0,0)" xlink:href="#aU"/><use transform="matrix(0.05,0,0,0.05,9,0)" xlink:href="#bd"/><use transform="matrix(0.05,0,0,0.05,14,0)" xlink:href="#aT"/><use transform="matrix(0.05,0,0,0.05,24,0)" xlink:href="#bb"/><use transform="matrix(0.05,0,0,0.05,34,0)" xlink:href="#aV"/><use transform="matrix(0.05,0,0,0.05,44,0)" xlink:href="#bc"/><use transform="matrix(0.05,0,0,0.05,54,0)" xlink:href="#bd"/><use transform="matrix(0.05,0,0,0.05,59,0)" xlink:href="#bu"/><use transform="matrix(0.05,0,0,0.05,64,0)" xlink:href="#bb"/></g><g id="J"><use transform="matrix(0.05,0,0,0.05,0,0)" xlink:href="#aU"/><use transform="matrix(0.05,0,0,0.05,9,0)" xlink:href="#bd"/><use transform="matrix(0.05,0,0,0.05,14,0)" xlink:href="#aT"/><use transform="matrix(0.05,0,0,0.05,24,0)" xlink:href="#bb"/><use transform="matrix(0.05,0,0,0.05,34,0)" xlink:href="#aV"/><use transform="matrix(0.05,0,0,0.05,44,0)" xlink:href="#bc"/><use transform="matrix(0.05,0,0,0.05,54,0)" xlink:href="#bd"/><use transform="matrix(0.05,0,0,0.05,59,0)" xlink:href="#bf"/><use transform="matrix(0.05,0,0,0.05,71.95,0)" xlink:href="#bg"/><use transform="matrix(0.05,0,0,0.05,81.95,0)" xlink:href="#bh"/><use transform="matrix(0.05,0,0,0.05,96.9,0)" xlink:href="#aV"/></g><g id="K"><use transform="matrix(0.05,0,0,0.05,0,0)" xlink:href="#aU"/><use transform="matrix(0.05,0,0,0.05,9,0)" xlink:href="#bd"/><use transform="matrix(0.05,0,0,0.05,14,0)" xlink:href="#aT"/><use transform="matrix(0.05,0,0,0.05,24,0)" xlink:href="#bb"/><use transform="matrix(0.05,0,0,0.05,34,0)" xlink:href="#aV"/><use transform="matrix(0.05,0,0,0.05,44,0)" xlink:href="#bc"/><use transform="matrix(0.05,0,0,0.05,54,0)" xlink:href="#bd"/><use transform="matrix(0.05,0,0,0.05,59,0)" xlink:href="#bt"/><use transform="matrix(0.05,0,0,0.05,69.95,0)" xlink:href="#ba"/><use transform="matrix(0.05,0,0,0.05,73.9,0)" xlink:href="#aW"/><use transform="matrix(0.05,0,0,0.05,79.85000000000001,0)" xlink:href="#aU"/><use transform="matrix(0.05,0,0,0.05,88.85000000000001,0)" xlink:href="#bd"/><use transform="matrix(0.05,0,0,0.05,93.85000000000001,0)" xlink:href="#bf"/><use transform="matrix(0.05,0,0,0.05,106.80000000000001,0)" xlink:href="#bg"/><use transform="matrix(0.05,0,0,0.05,116.80000000000001,0)" xlink:href="#bh"/><use transform="matrix(0.05,0,0,0.05,131.75,0)" xlink:href="#aV"/></g><path fill="#333" d="M30 0v-248h33v221h125V0H30" id="bv"/><g id="L"><use transform="matrix(0.05,0,0,0.05,0,0)" xlink:href="#aU"/><use transform="matrix(0.05,0,0,0.05,9,0)" xlink:href="#bd"/><use transform="matrix(0.05,0,0,0.05,14,0)" xlink:href="#aT"/><use transform="matrix(0.05,0,0,0.05,24,0)" xlink:href="#bb"/><use transform="matrix(0.05,0,0,0.05,34,0)" xlink:href="#aV"/><use transform="matrix(0.05,0,0,0.05,44,0)" xlink:href="#bc"/><use transform="matrix(0.05,0,0,0.05,54,0)" xlink:href="#bd"/><use transform="matrix(0.05,0,0,0.05,59,0)" xlink:href="#bv"/><use transform="matrix(0.05,0,0,0.05,69,0)" xlink:href="#bg"/><use transform="matrix(0.05,0,0,0.05,79,0)" xlink:href="#aU"/><use transform="matrix(0.05,0,0,0.05,88,0)" xlink:href="#bd"/><use transform="matrix(0.05,0,0,0.05,93,0)" xlink:href="#bf"/><use transform="matrix(0.05,0,0,0.05,105.95,0)" xlink:href="#bg"/><use transform="matrix(0.05,0,0,0.05,115.95,0)" xlink:href="#bh"/><use transform="matrix(0.05,0,0,0.05,130.9,0)" xlink:href="#aV"/></g><g id="M"><use transform="matrix(0.05,0,0,0.05,0,0)" xlink:href="#bd"/><use transform="matrix(0.05,0,0,0.05,5,0)" xlink:href="#aV"/><use transform="matrix(0.05,0,0,0.05,15,0)" xlink:href="#bg"/><use transform="matrix(0.05,0,0,0.05,25,0)" xlink:href="#bq"/><use transform="matrix(0.05,0,0,0.05,34,0)" xlink:href="#br"/><use transform="matrix(0.05,0,0,0.05,44,0)" xlink:href="#aV"/><use transform="matrix(0.05,0,0,0.05,54,0)" xlink:href="#aW"/><use transform="matrix(0.05,0,0,0.05,59.95,0)" xlink:href="#bu"/><use transform="matrix(0.05,0,0,0.05,64.95,0)" xlink:href="#bb"/></g><g id="N"><use transform="matrix(0.05,0,0,0.05,0,0)" xlink:href="#bq"/><use transform="matrix(0.05,0,0,0.05,9,0)" xlink:href="#bm"/><use transform="matrix(0.05,0,0,0.05,19,0)" xlink:href="#bc"/><use transform="matrix(0.05,0,0,0.05,29,0)" xlink:href="#bd"/><use transform="matrix(0.05,0,0,0.05,34,0)" xlink:href="#bg"/><use transform="matrix(0.05,0,0,0.05,44,0)" xlink:href="#bq"/><use transform="matrix(0.05,0,0,0.05,53,0)" xlink:href="#bd"/></g><path fill="#333" d="M108 0H70L1-190h34L89-25l56-165h34" id="bw"/><g id="O"><use transform="matrix(0.05,0,0,0.05,0,0)" xlink:href="#bm"/><use transform="matrix(0.05,0,0,0.05,10,0)" xlink:href="#bo"/><use transform="matrix(0.05,0,0,0.05,20,0)" xlink:href="#aU"/><use transform="matrix(0.05,0,0,0.05,29,0)" xlink:href="#aV"/><use transform="matrix(0.05,0,0,0.05,39,0)" xlink:href="#aW"/><use transform="matrix(0.05,0,0,0.05,44.95,0)" xlink:href="#bw"/><use transform="matrix(0.05,0,0,0.05,53.95,0)" xlink:href="#bg"/><use transform="matrix(0.05,0,0,0.05,63.95,0)" xlink:href="#bd"/><use transform="matrix(0.05,0,0,0.05,68.95,0)" xlink:href="#ba"/><use transform="matrix(0.05,0,0,0.05,72.9,0)" xlink:href="#bm"/><use transform="matrix(0.05,0,0,0.05,82.9,0)" xlink:href="#bc"/><use transform="matrix(0.05,0,0,0.05,92.9,0)" xlink:href="#aU"/></g><g id="P"><use transform="matrix(0.05,0,0,0.05,0,0)" xlink:href="#bj"/><use transform="matrix(0.05,0,0,0.05,3.95,0)" xlink:href="#aV"/><use transform="matrix(0.05,0,0,0.05,13.949999999999998,0)" xlink:href="#bw"/><use transform="matrix(0.05,0,0,0.05,22.95,0)" xlink:href="#aV"/><use transform="matrix(0.05,0,0,0.05,32.95,0)" xlink:href="#bj"/></g><path fill="#333" d="M145-31C134-9 116 4 85 4 32 4 16-35 15-94c0-59 17-99 70-100 32-1 48 14 60 33 0-11-1-24 2-32h30l-1 268h-32zM93-21c41 0 51-33 51-76s-8-73-50-73c-40 0-46 35-46 75s5 74 45 74" id="bx"/><g id="Q"><use transform="matrix(0.05,0,0,0.05,0,0)" xlink:href="#bx"/><use transform="matrix(0.05,0,0,0.05,10,0)" xlink:href="#aT"/><use transform="matrix(0.05,0,0,0.05,20,0)" xlink:href="#bg"/><use transform="matrix(0.05,0,0,0.05,30,0)" xlink:href="#aW"/><use transform="matrix(0.05,0,0,0.05,35.95,0)" xlink:href="#bd"/><use transform="matrix(0.05,0,0,0.05,40.95,0)" xlink:href="#aV"/><use transform="matrix(0.05,0,0,0.05,50.95,0)" xlink:href="#aW"/></g><path fill="#333" d="M233-177c-1 41-23 64-60 70L243 0h-38l-65-103H63V0H30v-248c88 3 205-21 203 71zM63-129c60-2 137 13 137-47 0-61-80-42-137-45v92" id="by"/><g id="R"><use transform="matrix(0.05,0,0,0.05,0,0)" xlink:href="#bx"/><use transform="matrix(0.05,0,0,0.05,10,0)" xlink:href="#aT"/><use transform="matrix(0.05,0,0,0.05,20,0)" xlink:href="#bg"/><use transform="matrix(0.05,0,0,0.05,30,0)" xlink:href="#aW"/><use transform="matrix(0.05,0,0,0.05,35.95,0)" xlink:href="#bd"/><use transform="matrix(0.05,0,0,0.05,40.95,0)" xlink:href="#aV"/><use transform="matrix(0.05,0,0,0.05,50.95,0)" xlink:href="#aW"/><use transform="matrix(0.05,0,0,0.05,56.900000000000006,0)" xlink:href="#by"/><use transform="matrix(0.05,0,0,0.05,69.85000000000001,0)" xlink:href="#aV"/><use transform="matrix(0.05,0,0,0.05,79.85000000000001,0)" xlink:href="#aU"/><use transform="matrix(0.05,0,0,0.05,88.85000000000001,0)" xlink:href="#aT"/><use transform="matrix(0.05,0,0,0.05,98.85000000000001,0)" xlink:href="#bj"/><use transform="matrix(0.05,0,0,0.05,102.80000000000001,0)" xlink:href="#bd"/><use transform="matrix(0.05,0,0,0.05,107.80000000000001,0)" xlink:href="#aU"/></g><g id="S"><use transform="matrix(0.05,0,0,0.05,0,0)" xlink:href="#bx"/><use transform="matrix(0.05,0,0,0.05,10,0)" xlink:href="#aT"/><use transform="matrix(0.05,0,0,0.05,20,0)" xlink:href="#bg"/><use transform="matrix(0.05,0,0,0.05,30,0)" xlink:href="#aW"/><use transform="matrix(0.05,0,0,0.05,35.95,0)" xlink:href="#bd"/><use transform="matrix(0.05,0,0,0.05,40.95,0)" xlink:href="#aV"/><use transform="matrix(0.05,0,0,0.05,50.95,0)" xlink:href="#aW"/><use transform="matrix(0.05,0,0,0.05,56.900000000000006,0)" xlink:href="#bu"/><use transform="matrix(0.05,0,0,0.05,61.900000000000006,0)" xlink:href="#bb"/></g><path fill="#333" d="M27 0v-27h64v-190l-56 39v-29l58-41h29v221h61V0H27" id="bz"/><g id="T"><use transform="matrix(0.05,0,0,0.05,0,0)" xlink:href="#bd"/><use transform="matrix(0.05,0,0,0.05,5,0)" xlink:href="#aV"/><use transform="matrix(0.05,0,0,0.05,15,0)" xlink:href="#aU"/><use transform="matrix(0.05,0,0,0.05,24,0)" xlink:href="#bd"/><use transform="matrix(0.05,0,0,0.05,29,0)" xlink:href="#bz"/></g><g id="U"><use transform="matrix(0.05,0,0,0.05,0,0)" xlink:href="#bc"/><use transform="matrix(0.05,0,0,0.05,10,0)" xlink:href="#aT"/><use transform="matrix(0.05,0,0,0.05,20,0)" xlink:href="#bh"/><use transform="matrix(0.05,0,0,0.05,34.95,0)" xlink:href="#bo"/><use transform="matrix(0.05,0,0,0.05,44.95,0)" xlink:href="#aV"/><use transform="matrix(0.05,0,0,0.05,54.95,0)" xlink:href="#aW"/></g><g id="V"><use transform="matrix(0.05,0,0,0.05,0,0)" xlink:href="#bk"/><use transform="matrix(0.05,0,0,0.05,10,0)" xlink:href="#aV"/><use transform="matrix(0.05,0,0,0.05,20,0)" xlink:href="#aW"/><use transform="matrix(0.05,0,0,0.05,25.950000000000003,0)" xlink:href="#bp"/><use transform="matrix(0.05,0,0,0.05,34.9,0)" xlink:href="#aV"/><use transform="matrix(0.05,0,0,0.05,44.9,0)" xlink:href="#aU"/><use transform="matrix(0.05,0,0,0.05,53.900000000000006,0)" xlink:href="#bd"/><use transform="matrix(0.05,0,0,0.05,58.900000000000006,0)" xlink:href="#bz"/></g><path fill="#333" d="M101-251c82-7 93 87 43 132L82-64C71-53 59-42 53-27h129V0H18c2-99 128-94 128-182 0-28-16-43-45-43s-46 15-49 41l-32-3c6-41 34-60 81-64" id="bA"/><g id="W"><use transform="matrix(0.05,0,0,0.05,0,0)" xlink:href="#bd"/><use transform="matrix(0.05,0,0,0.05,5,0)" xlink:href="#aV"/><use transform="matrix(0.05,0,0,0.05,15,0)" xlink:href="#aU"/><use transform="matrix(0.05,0,0,0.05,24,0)" xlink:href="#bd"/><use transform="matrix(0.05,0,0,0.05,29,0)" xlink:href="#bA"/></g><g id="X"><use transform="matrix(0.05,0,0,0.05,0,0)" xlink:href="#bk"/><use transform="matrix(0.05,0,0,0.05,10,0)" xlink:href="#aV"/><use transform="matrix(0.05,0,0,0.05,20,0)" xlink:href="#aW"/><use transform="matrix(0.05,0,0,0.05,25.950000000000003,0)" xlink:href="#bp"/><use transform="matrix(0.05,0,0,0.05,34.9,0)" xlink:href="#aV"/><use transform="matrix(0.05,0,0,0.05,44.9,0)" xlink:href="#aU"/><use transform="matrix(0.05,0,0,0.05,53.900000000000006,0)" xlink:href="#bd"/><use transform="matrix(0.05,0,0,0.05,58.900000000000006,0)" xlink:href="#bA"/></g><g id="Y"><use transform="matrix(0.05,0,0,0.05,0,0)" xlink:href="#bg"/><use transform="matrix(0.05,0,0,0.05,10,0)" xlink:href="#aU"/><use transform="matrix(0.05,0,0,0.05,19,0)" xlink:href="#aU"/><use transform="matrix(0.05,0,0,0.05,28,0)" xlink:href="#ba"/><use transform="matrix(0.05,0,0,0.05,31.950000000000003,0)" xlink:href="#aU"/><use transform="matrix(0.05,0,0,0.05,40.95,0)" xlink:href="#bd"/><use transform="matrix(0.05,0,0,0.05,45.95,0)" xlink:href="#aU"/></g><g id="Z"><use transform="matrix(0.05,0,0,0.05,0,0)" xlink:href="#br"/><use transform="matrix(0.05,0,0,0.05,10,0)" xlink:href="#bm"/><use transform="matrix(0.05,0,0,0.05,20,0)" xlink:href="#bh"/><use transform="matrix(0.05,0,0,0.05,34.95,0)" xlink:href="#aV"/><use transform="matrix(0.05,0,0,0.05,44.95,0)" xlink:href="#bl"/><use transform="matrix(0.05,0,0,0.05,57.900000000000006,0)" xlink:href="#bm"/><use transform="matrix(0.05,0,0,0.05,67.9,0)" xlink:href="#aW"/><use transform="matrix(0.05,0,0,0.05,73.85000000000001,0)" xlink:href="#bs"/></g><g id="aa"><use transform="matrix(0.05,0,0,0.05,0,0)" xlink:href="#bj"/><use transform="matrix(0.05,0,0,0.05,3.95,0)" xlink:href="#aV"/><use transform="matrix(0.05,0,0,0.05,13.949999999999998,0)" xlink:href="#bw"/><use transform="matrix(0.05,0,0,0.05,22.95,0)" xlink:href="#aV"/><use transform="matrix(0.05,0,0,0.05,32.95,0)" xlink:href="#bj"/><use transform="matrix(0.05,0,0,0.05,36.900000000000006,0)" xlink:href="#bu"/><use transform="matrix(0.05,0,0,0.05,41.900000000000006,0)" xlink:href="#bb"/></g><g id="ab"><use transform="matrix(0.05,0,0,0.05,0,0)" xlink:href="#aU"/><use transform="matrix(0.05,0,0,0.05,9,0)" xlink:href="#aV"/><use transform="matrix(0.05,0,0,0.05,19,0)" xlink:href="#bq"/><use transform="matrix(0.05,0,0,0.05,28,0)" xlink:href="#bd"/><use transform="matrix(0.05,0,0,0.05,33,0)" xlink:href="#ba"/><use transform="matrix(0.05,0,0,0.05,36.95,0)" xlink:href="#bm"/><use transform="matrix(0.05,0,0,0.05,46.95,0)" xlink:href="#bc"/></g></defs></g></svg>